<svg width="473" height="1024" viewBox="0 0 473 1024" fill="none" xmlns="http://www.w3.org/2000/svg">
<path d="M143.92 175.909C74.5611 165.857 27.9033 54.4482 13.2441 0H574.897L552.481 732.347C552.481 732.347 535.798 704.754 349.483 661.502C236.367 635.243 51.4017 522.979 117.874 514.362C253.575 496.772 381.31 356.828 382.654 312.868C383.997 268.907 230.618 188.474 143.92 175.909Z" fill="#FDBE00" fill-opacity="0.83"/>
<path d="M86.1189 179.87C16.7604 169.819 -29.8975 58.4092 -44.5566 3.96103H517.097L494.68 736.308C494.68 736.308 477.998 708.715 291.682 665.463C178.567 639.204 -6.39912 526.94 60.0731 518.323C195.775 500.733 323.509 360.789 324.853 316.829C326.196 272.868 172.817 192.435 86.1189 179.87Z" fill="#FDBE00" fill-opacity="0.41"/>
<path d="M181.315 248.812C90.6123 216.507 44.6388 265.705 44.6388 327.244C44.6388 327.244 44.6388 332.85 53.1817 346.659C71.9012 376.916 -27.5811 443.988 -77.2812 472.462V-5.12463H443.016C393.575 92.9812 272.017 281.117 181.315 248.812Z" fill="#4200FF" fill-opacity="0.63"/>
<path d="M148.699 257.897C57.9971 225.592 12.0236 274.791 12.0236 336.33C12.0236 336.33 12.0236 341.936 20.5665 355.744C39.286 386.002 -60.1963 453.073 -109.896 481.547V3.96103H410.401C360.96 102.067 239.402 290.202 148.699 257.897Z" fill="#4200FF" fill-opacity="0.41"/>
<path d="M222.493 592.176C137.844 828.488 -39.0963 1013.95 -116.986 1077.14C-150.493 1119.47 -155.93 1152.09 -154.46 1163.12H515.677V340.874C453.219 326.178 307.141 355.864 222.493 592.176Z" fill="#71E981" fill-opacity="0.4"/>
<path d="M224.858 645.264C140.21 881.576 -36.7311 1067.04 -114.62 1130.23C-148.128 1172.56 -153.565 1205.18 -152.095 1216.2H518.043V393.962C455.585 379.266 309.507 408.952 224.858 645.264Z" fill="#3FC6D0" fill-opacity="0.8"/>
</svg>
