<svg width="1440" height="1024" viewBox="0 0 1440 1024" fill="none" xmlns="http://www.w3.org/2000/svg">
<path d="M364.719 370.041C204.624 346.839 96.9281 89.683 63.0918 -35.9948H1462.51L1479.91 1129.91C1090.31 1132.81 270.749 1130.49 521.331 1098.01C834.559 1057.4 912.665 787.64 915.766 686.169C918.867 584.699 564.836 399.044 364.719 370.041Z" fill="#FDBE00" fill-opacity="0.41"/>
<path d="M496.832 359.286C336.738 336.084 229.041 78.9282 195.205 -46.7496H1491.62L1509.02 1119.15C1119.42 1122.05 402.863 1119.73 653.445 1087.25C966.672 1046.65 1044.78 776.885 1047.88 675.414C1050.98 573.944 696.95 388.289 496.832 359.286Z" fill="#FDBE00" fill-opacity="0.83"/>
<path d="M583.146 550.642C373.786 476.075 267.669 589.635 267.669 731.682C267.669 731.682 267.669 744.621 287.388 776.493C330.596 846.334 100.97 1001.15 -13.748 1066.87V-35.4962H1187.21C1073.09 190.953 792.506 625.209 583.146 550.642Z" fill="#4200FF" fill-opacity="0.63"/>
<path d="M507.862 571.614C298.502 497.047 192.386 610.607 192.386 752.653C192.386 752.653 192.386 765.592 212.105 797.465C255.313 867.305 25.6872 1022.12 -89.0312 1087.85V-14.5245H1111.92C997.804 211.924 717.222 646.18 507.862 571.614Z" fill="#4200FF" fill-opacity="0.41"/>
</svg>
