<svg width="285" height="152" viewBox="0 0 285 152" fill="none" xmlns="http://www.w3.org/2000/svg">
<rect x="163.098" width="132.565" height="49.6548" rx="24.8274" transform="rotate(29 163.098 0)" fill="url(#paint0_linear)"/>
<rect width="132.565" height="49.6548" rx="24.8274" transform="matrix(0.87462 -0.48481 -0.48481 -0.87462 169.056 151.126)" fill="url(#paint1_linear)"/>
<rect width="132.565" height="49.6548" rx="24.8274" transform="matrix(-0.87462 0.48481 0.48481 0.87462 117.145 0)" fill="url(#paint2_linear)"/>
<rect x="116.703" y="148.619" width="132.565" height="49.6548" rx="24.8274" transform="rotate(-151 116.703 148.619)" fill="url(#paint3_linear)" fill-opacity="0.7"/>
<rect x="79.6152" y="143.614" width="134.812" height="53.1353" rx="26.5677" transform="rotate(-90 79.6152 143.614)" fill="url(#paint4_linear)"/>
<defs>
<linearGradient id="paint0_linear" x1="299.678" y1="28.7235" x2="155.394" y2="23.5419" gradientUnits="userSpaceOnUse">
<stop stop-color="#369CD6"/>
<stop offset="1" stop-color="#FF1203"/>
<stop offset="1" stop-color="#FF1203"/>
</linearGradient>
<linearGradient id="paint1_linear" x1="-10.4643" y1="21.3808" x2="122.066" y2="33.0776" gradientUnits="userSpaceOnUse">
<stop stop-color="#EB00FF" stop-opacity="0.99"/>
<stop offset="1" stop-color="#FDBE00"/>
</linearGradient>
<linearGradient id="paint2_linear" x1="136.58" y1="28.7235" x2="-7.70379" y2="23.5419" gradientUnits="userSpaceOnUse">
<stop stop-color="#FDBE00"/>
<stop offset="1" stop-color="#FF1203"/>
<stop offset="1" stop-color="#FF1203"/>
</linearGradient>
<linearGradient id="paint3_linear" x1="111.404" y1="171.17" x2="258.653" y2="171.261" gradientUnits="userSpaceOnUse">
<stop stop-color="#0E5EE6"/>
<stop offset="1" stop-color="#EB00FF" stop-opacity="0.99"/>
</linearGradient>
<linearGradient id="paint4_linear" x1="68.9736" y1="166.494" x2="214.435" y2="169.825" gradientUnits="userSpaceOnUse">
<stop stop-color="#13FFBE"/>
<stop offset="1" stop-color="#FDBE00"/>
</linearGradient>
</defs>
</svg>
