<svg width="63" height="61" viewBox="0 0 63 61" fill="none" xmlns="http://www.w3.org/2000/svg">
<path d="M31.9285 4.03655C31.7893 4.01252 31.6462 4 31.5001 4C31.3541 4 31.2109 4.01252 31.0718 4.03655C30.4083 4.01765 29.7387 4.26139 29.2323 4.76777L4.76788 29.2322C3.79157 30.2085 3.79157 31.7915 4.76788 32.7678C5.74419 33.7441 7.3271 33.7441 8.30341 32.7678L29.0001 12.0711V54.5C29.0001 55.8807 30.1194 57 31.5001 57C32.8808 57 34.0001 55.8807 34.0001 54.5V12.0711L54.6968 32.7678C55.6731 33.7441 57.256 33.7441 58.2323 32.7678C59.2087 31.7915 59.2087 30.2085 58.2323 29.2322L33.7679 4.76777C33.2615 4.26139 32.5919 4.01765 31.9285 4.03655Z" fill="black" stroke="black" stroke-width="8" stroke-linecap="round"/>
</svg>
