<svg width="1440" height="368" viewBox="0 0 1440 368" fill="none" xmlns="http://www.w3.org/2000/svg">
<path d="M426.21 131.005L428.247 123.787L426.21 131.005ZM576.655 48.1324L569.155 48.1572L569.156 48.4102L569.173 48.6626L576.655 48.1324ZM531.599 39.907L537.266 44.8203L531.599 39.907ZM516.453 170.696L509.426 173.318L516.453 170.696ZM539.007 212.879L544.52 207.795L539.007 212.879ZM551.152 142.583L547.735 135.906L547.543 136.004L547.357 136.114L551.152 142.583ZM636.587 150.099L635.157 142.736L635.091 142.749L635.024 142.763L636.587 150.099ZM652.313 17.358L646.896 22.5446L647.288 22.9538L647.736 23.2995L652.313 17.358ZM644.804 201.862L637.513 203.618L637.566 203.84L637.633 204.058L644.804 201.862ZM743.642 128.853V121.353H743.386L743.131 121.37L743.642 128.853ZM793.723 155.913L800.915 153.789L793.723 155.913ZM917.685 168.11L923.349 173.025L917.685 168.11ZM935.679 99.8956L940.985 94.5948L935.679 99.8956ZM908.037 307.207L914.981 310.04L908.037 307.207ZM867.447 236.932L872.062 242.843L867.447 236.932ZM1047.98 162.862L1048.79 170.319L1047.98 162.862ZM873.38 99.8956L871.194 92.7212L873.38 99.8956ZM743.642 162.862L741.803 170.133L743.642 162.862ZM424.174 138.224C444.666 144.006 462.45 146.524 480.32 144.469C498.206 142.413 515.568 135.85 535.356 124.398L527.843 111.415C509.206 122.2 493.832 127.818 478.607 129.568C463.368 131.319 447.67 129.268 428.247 123.787L424.174 138.224ZM535.356 124.398C576.425 100.63 585.317 64.2617 584.136 47.6021L569.173 48.6626C569.976 59.9882 563.622 90.7088 527.843 111.415L535.356 124.398ZM584.155 48.1075C584.117 36.8684 574.729 26.9466 563.927 23.1519C552.138 19.0102 537.675 21.4518 525.933 34.9936L537.266 44.8203C545.076 35.8132 553.117 35.2529 558.956 37.304C565.782 39.702 569.145 45.1673 569.155 48.1572L584.155 48.1075ZM525.933 34.9936C509.532 53.9088 502.782 81.1773 501.287 106.631C499.785 132.18 503.488 157.4 509.426 173.318L523.48 168.075C518.414 154.494 514.856 131.428 516.261 107.511C517.672 83.4992 523.998 60.122 537.266 44.8203L525.933 34.9936ZM509.426 173.318C513.445 184.089 515.999 191.676 519.171 198.098C522.534 204.907 526.58 210.466 533.493 217.964L544.52 207.795C538.226 200.969 535.153 196.584 532.62 191.455C529.897 185.94 527.779 179.597 523.48 168.075L509.426 173.318ZM533.493 217.964C546.518 232.089 566.099 236.817 582.355 232.408C590.571 230.179 598.147 225.554 603.503 218.393C608.897 211.18 611.682 201.866 611.062 190.943L596.086 191.793C596.529 199.589 594.543 205.326 591.49 209.409C588.399 213.543 583.852 216.459 578.428 217.931C567.405 220.921 553.64 217.685 544.52 207.795L533.493 217.964ZM611.062 190.943C609.884 170.18 600.538 153.626 588.429 143.553C576.614 133.724 560.805 129.218 547.735 135.906L554.569 149.259C560.343 146.304 569.682 147.47 578.836 155.085C587.696 162.455 595.14 175.116 596.086 191.793L611.062 190.943ZM547.357 136.114C544.261 137.93 540.749 140.225 537.589 142.69C534.58 145.038 531.288 147.999 529.23 151.222C528.203 152.832 527.043 155.18 526.958 158C526.859 161.255 528.222 164.225 530.687 166.338C532.84 168.184 535.49 169.099 537.89 169.606C540.388 170.134 543.312 170.362 546.618 170.362V155.362C543.916 155.362 542.116 155.168 540.992 154.93C539.77 154.672 539.898 154.478 540.45 154.95C541.313 155.69 541.994 157.023 541.951 158.456C541.92 159.455 541.553 159.796 541.874 159.293C542.514 158.291 544.141 156.604 546.817 154.516C549.342 152.545 552.281 150.615 554.947 149.052L547.357 136.114ZM546.618 170.362C571.557 170.362 618.271 161.668 638.149 157.434L635.024 142.763C614.948 147.039 569.737 155.362 546.618 155.362V170.362ZM638.016 157.461C649.216 155.287 665.291 148.932 677.453 136.572C689.967 123.853 697.966 105.088 692.668 79.6467L677.983 82.7047C682.206 102.985 675.942 116.72 666.76 126.051C657.226 135.741 644.17 140.987 635.157 142.736L638.016 157.461ZM692.668 79.6467C687.691 55.7443 679.016 38.8701 671.423 27.8626C667.632 22.3677 664.124 18.3525 661.502 15.6636C660.191 14.3193 659.101 13.3062 658.308 12.605C657.911 12.2544 657.589 11.9817 657.349 11.7844C657.229 11.6858 657.131 11.606 657.054 11.5448C657.015 11.5142 656.982 11.4882 656.955 11.4669C656.941 11.4562 656.929 11.4466 656.918 11.4382C656.913 11.434 656.908 11.4301 656.903 11.4265C656.901 11.4247 656.898 11.4222 656.896 11.4213C656.893 11.4188 656.89 11.4165 652.313 17.358C647.736 23.2995 647.734 23.2973 647.731 23.2951C647.73 23.2945 647.727 23.2924 647.726 23.2912C647.722 23.2886 647.719 23.2864 647.717 23.2844C647.712 23.2804 647.708 23.2775 647.706 23.2757C647.701 23.2721 647.702 23.2728 647.708 23.2778C647.721 23.2878 647.755 23.3152 647.81 23.3603C647.919 23.4505 648.11 23.6112 648.375 23.8447C648.903 24.3118 649.723 25.0696 650.763 26.1361C652.843 28.2691 655.803 31.6354 659.075 36.3797C665.608 45.8506 673.439 60.8853 677.983 82.7047L692.668 79.6467ZM652.313 17.358C657.731 12.1714 657.728 12.1688 657.726 12.1661C657.725 12.165 657.722 12.1622 657.72 12.16C657.716 12.1557 657.711 12.1508 657.706 12.1455C657.696 12.1347 657.683 12.1219 657.669 12.1071C657.64 12.0774 657.603 12.0396 657.558 11.9943C657.469 11.9037 657.348 11.7826 657.198 11.6353C656.897 11.3411 656.477 10.9395 655.953 10.4651C654.914 9.52315 653.429 8.25933 651.635 6.96875C648.315 4.57996 642.831 1.27769 636.643 0.961657C633.333 0.792563 629.765 1.48024 626.441 3.61932C623.169 5.72474 620.668 8.88979 618.826 12.7905C615.258 20.3427 613.608 31.8125 614.071 48.3422L629.065 47.9225C628.621 32.0612 630.361 23.4887 632.388 19.1974C633.343 17.1763 634.191 16.4693 634.558 16.2336C634.871 16.0316 635.232 15.9091 635.878 15.9421C637.604 16.0303 640.146 17.181 642.874 19.1443C644.104 20.0297 645.149 20.9166 645.882 21.5814C646.245 21.9104 646.523 22.1762 646.699 22.3485C646.786 22.4344 646.848 22.4964 646.882 22.5305C646.899 22.5475 646.908 22.5576 646.911 22.5601C646.912 22.5614 646.911 22.5608 646.909 22.5582C646.908 22.5569 646.906 22.5552 646.904 22.5529C646.903 22.5518 646.901 22.5497 646.9 22.5491C646.898 22.5469 646.896 22.5446 652.313 17.358ZM614.071 48.3422C614.994 81.3215 620.888 120.208 626.49 150.648C629.299 165.911 632.05 179.136 634.1 188.548C635.126 193.255 635.976 197.012 636.572 199.597C636.869 200.89 637.103 201.889 637.263 202.569C637.343 202.908 637.405 203.168 637.447 203.344C637.468 203.432 637.484 203.499 637.495 203.545C637.501 203.568 637.505 203.586 637.508 203.598C637.509 203.604 637.51 203.609 637.511 203.612C637.512 203.614 637.512 203.615 637.512 203.616C637.513 203.617 637.513 203.618 644.804 201.862C652.096 200.106 652.096 200.106 652.096 200.106C652.096 200.106 652.095 200.105 652.095 200.104C652.095 200.102 652.094 200.099 652.093 200.094C652.091 200.085 652.087 200.07 652.082 200.05C652.073 200.01 652.058 199.948 652.038 199.866C651.999 199.702 651.94 199.454 651.863 199.126C651.708 198.471 651.48 197.497 651.189 196.23C650.606 193.698 649.768 190 648.757 185.356C646.733 176.066 644.016 163.004 641.242 147.933C635.68 117.704 629.956 79.7253 629.065 47.9225L614.071 48.3422ZM637.633 204.058C641.63 217.112 647.164 226.535 655.659 232.426C664.084 238.269 674.203 239.772 685.326 239.772V224.772C675.253 224.772 668.866 223.331 664.207 220.1C659.617 216.917 655.487 211.135 651.976 199.666L637.633 204.058ZM743.131 121.37C732.274 122.111 723.656 128.542 717.63 136.813C711.61 145.075 707.707 155.731 706.11 166.649C702.997 187.928 708.381 214.058 729.728 225.617L736.871 212.427C723.647 205.267 718.234 187.401 720.952 168.82C722.27 159.809 725.438 151.569 729.754 145.645C734.063 139.73 739.042 136.684 744.153 136.336L743.131 121.37ZM729.728 225.617C751.361 237.331 772.55 227.038 785.776 211.515C798.884 196.131 806.623 173.115 800.915 153.789L786.53 158.038C790.402 171.148 785.214 189.046 774.359 201.787C763.621 214.39 749.808 219.433 736.871 212.427L729.728 225.617ZM824.798 157.544C828.914 181.587 845.044 196.079 865.08 198.691C884.659 201.244 906.597 192.329 923.349 173.025L912.021 163.194C897.894 179.472 880.673 185.597 867.019 183.817C853.82 182.097 842.642 172.883 839.583 155.012L824.798 157.544ZM923.349 173.025C933.244 161.625 940.764 146.05 944.523 131.966C946.408 124.904 947.443 117.868 947.204 111.649C946.975 105.674 945.51 99.1247 940.985 94.5948L930.373 105.196C930.948 105.772 932.042 107.702 932.215 112.224C932.379 116.503 931.663 121.982 930.03 128.097C926.755 140.368 920.178 153.794 912.021 163.194L923.349 173.025ZM940.985 94.5948C939.914 93.5227 937.985 92.0355 935.204 91.7825C932.199 91.5092 929.863 92.812 928.434 94.0969C926.106 96.1908 924.984 99.2638 924.37 101.179C922.924 105.691 921.818 112.447 920.872 120.275C918.952 136.177 917.44 158.911 915.827 182.986C914.206 207.186 912.474 232.87 910.118 255.04C907.725 277.554 904.782 295.333 901.093 304.373L914.981 310.04C919.604 298.711 922.678 278.795 925.034 256.625C927.427 234.11 929.177 208.12 930.794 183.989C932.419 159.733 933.904 137.481 935.764 122.074C936.709 114.248 937.689 108.769 938.654 105.757C939.246 103.91 939.41 104.4 938.466 105.249C937.729 105.911 936.109 106.927 933.846 106.721C931.807 106.535 930.647 105.471 930.373 105.196L940.985 94.5948ZM901.093 304.373C891.972 326.722 880.943 340.865 869.845 347.594C859.311 353.98 848.048 354.138 836.061 346.915L828.319 359.763C844.811 369.7 862.057 369.857 877.621 360.421C892.62 351.327 905.275 333.824 914.981 310.04L901.093 304.373ZM836.061 346.915C826.056 340.886 821.335 326.417 826.825 305.91C832.199 285.837 847.077 262.35 872.062 242.843L862.832 231.02C835.66 252.233 818.67 278.369 812.335 302.03C806.117 325.256 809.846 348.632 828.319 359.763L836.061 346.915ZM872.062 242.843C906.046 216.313 978.12 177.967 1048.79 170.319L1047.18 155.406C973.07 163.426 898.428 203.229 862.832 231.02L872.062 242.843ZM800.915 153.789C796.841 139.992 786.897 131.777 776.029 127.165C765.335 122.626 753.334 121.353 743.642 121.353V136.353C752.276 136.353 762.042 137.524 770.169 140.973C778.122 144.348 784.056 149.663 786.53 158.038L800.915 153.789ZM839.63 155.333C837.222 136.374 848.125 115.43 875.565 107.07L871.194 92.7212C837.304 103.046 821.351 130.466 824.75 157.223L839.63 155.333ZM875.565 107.07C893.732 101.536 907.164 101.612 916.345 102.925C920.964 103.585 924.622 104.574 927.441 105.426C928.588 105.773 930.372 106.343 931.272 106.609C932.11 106.856 933.903 107.396 935.679 107.396V92.3956C936.422 92.3956 936.695 92.5693 935.515 92.2211C934.397 91.8914 933.663 91.637 931.782 91.0683C928.543 90.0891 924.098 88.8807 918.468 88.0758C907.151 86.4581 891.5 86.5348 871.194 92.7212L875.565 107.07ZM685.326 239.772C697.005 239.772 709.827 236.837 719.557 233.707C724.461 232.13 728.798 230.433 732.016 228.895C733.591 228.143 735.113 227.328 736.346 226.483C736.939 226.077 737.729 225.487 738.455 224.716C738.859 224.286 740.799 222.247 740.799 219.022H725.799C725.799 216.104 727.531 214.437 727.532 214.435C727.855 214.092 728.049 213.985 727.868 214.109C727.554 214.324 726.818 214.755 725.552 215.36C723.087 216.537 719.404 217.999 714.964 219.428C706.006 222.309 694.841 224.772 685.326 224.772V239.772ZM741.543 121.653C732.642 124.247 725.884 127.861 721.681 132.738C717.137 138.01 716.064 144.233 717.817 150.049C719.433 155.408 723.232 159.814 727.33 163.025C731.506 166.297 736.604 168.818 741.803 170.133L745.481 155.591C742.333 154.795 739.129 153.213 736.581 151.217C733.953 149.159 732.604 147.131 732.179 145.719C731.89 144.763 731.883 143.877 733.044 142.53C734.545 140.788 738.13 138.272 745.741 136.053L741.543 121.653ZM741.803 170.133C768.176 176.804 791.484 175.068 808.191 171.67C816.549 169.97 823.286 167.848 827.976 166.131C830.322 165.272 832.161 164.512 833.439 163.955C834.078 163.676 834.578 163.447 834.931 163.281C835.108 163.198 835.248 163.131 835.351 163.081C835.402 163.056 835.444 163.036 835.477 163.02C835.493 163.011 835.507 163.005 835.519 162.999C835.525 162.996 835.53 162.993 835.535 162.991C835.537 162.99 835.54 162.988 835.541 162.988C835.544 162.986 835.547 162.985 832.19 156.278C828.833 149.571 828.836 149.57 828.838 149.569C828.839 149.568 828.841 149.567 828.842 149.567C828.844 149.566 828.846 149.565 828.847 149.564C828.849 149.563 828.849 149.563 828.847 149.564C828.842 149.567 828.828 149.574 828.805 149.585C828.76 149.607 828.678 149.646 828.56 149.701C828.326 149.811 827.95 149.984 827.44 150.207C826.419 150.652 824.861 151.298 822.818 152.045C818.73 153.542 812.72 155.442 805.201 156.971C790.154 160.032 769.189 161.588 745.481 155.591L741.803 170.133ZM833.473 163.667C849.072 160.958 873.049 154.83 894.579 145.134C905.348 140.284 915.763 134.427 924.254 127.472C932.708 120.547 939.719 112.15 942.84 102.125L928.518 97.6665C926.583 103.883 921.916 109.997 914.749 115.868C907.62 121.707 898.473 126.93 888.419 131.457C868.303 140.517 845.591 146.338 830.907 148.889L833.473 163.667ZM428.247 123.787C414.62 119.942 420.555 123.294 282.72 74.1119L277.679 88.2395C415.578 137.445 410.036 134.234 424.174 138.224L428.247 123.787ZM282.72 74.1119C212.193 48.9466 113.951 46.4512 32.1351 66.7095C-8.8231 76.8511 -46.2061 92.8238 -74.0853 115.001C-102.068 137.259 -120.743 166.03 -123.18 201.346L-108.216 202.378C-106.137 172.252 -90.301 147.066 -64.7475 126.74C-39.0908 106.331 -3.91377 91.0885 35.7403 81.2698C115.149 61.6077 210.34 64.2114 277.679 88.2395L282.72 74.1119ZM1048.79 170.319C1127.64 161.786 1208.33 185.926 1282.12 201.586C1318.63 209.334 1353.56 214.988 1384.91 212.752C1416.52 210.496 1444.87 200.182 1467.57 175.807L1456.59 165.585C1437.08 186.538 1412.66 195.734 1383.84 197.79C1354.76 199.864 1321.6 194.631 1285.23 186.913C1213.28 171.642 1129.13 146.537 1047.18 155.406L1048.79 170.319Z" fill="black"/>
</svg>
