<svg width="305" height="193" viewBox="0 0 305 193" fill="none" xmlns="http://www.w3.org/2000/svg">
<mask id="mask0" mask-type="alpha" maskUnits="userSpaceOnUse" x="0" y="0" width="305" height="193">
<path fill-rule="evenodd" clip-rule="evenodd" d="M72.4815 3.1438C34.2882 6.82625 4.07265 37.7805 0.629765 75.9962C0.238392 80.3404 0.234903 84.7709 0.630048 89.1147L2.18673 106.227C4.69815 133.836 27.8466 154.974 55.5688 154.974L58.2623 157.713C67.4086 167.016 71.5867 180.113 69.5168 192.993C81.992 189 104.517 154.974 104.517 154.974H136.082C173.619 154.974 204.934 126.292 208.223 88.8987C208.592 84.698 208.589 80.417 208.223 76.216C204.885 37.8903 174.627 6.81482 136.333 3.12275L114.684 1.0354C107.921 0.383383 101.112 0.383383 94.3493 1.0354L72.4815 3.1438ZM224.912 45.4512C214.912 51.2247 214.912 65.6585 224.912 71.432L281.649 104.189C291.649 109.962 304.149 102.746 304.149 91.1986V25.6846C304.149 14.1376 291.649 6.92069 281.649 12.6942L224.912 45.4512Z" fill="#0E5EE6"/>
</mask>
<g mask="url(#mask0)">
<ellipse cx="223.265" cy="49.4424" rx="153.867" ry="97.0176" fill="#0E5EE6"/>
<ellipse cx="231.166" cy="178.287" rx="126.65" ry="127.528" fill="#13FFBE"/>
<ellipse cx="38.6674" cy="41.7597" rx="102.286" ry="84.5063" fill="#D64036" fill-opacity="0.7"/>
<ellipse cx="31.8628" cy="179.165" rx="107.773" ry="106.895" fill="#EB00FF" fill-opacity="0.5"/>
</g>
</svg>
