<svg width="24" height="42" viewBox="0 0 24 42" fill="none" xmlns="http://www.w3.org/2000/svg">
<path d="M18.2665 11.8613C18.2665 13.1117 17.9227 14.0807 17.235 14.7684C16.5785 15.4561 15.547 16.1751 14.1403 16.9253C12.8274 17.6442 11.7646 18.3319 10.9519 18.9884C10.1704 19.6136 9.48271 20.5357 8.88878 21.7548C8.32612 22.9427 8.04479 24.5056 8.04479 26.4437V28.0848H12.171V25.5059C12.171 24.4431 12.3742 23.5522 12.7806 22.8333C13.2182 22.1143 13.734 21.5516 14.3279 21.1453C14.9531 20.7076 15.7971 20.2075 16.8599 19.6448C18.079 19.0196 19.0636 18.4257 19.8139 17.863C20.5641 17.3004 21.1893 16.5345 21.6894 15.5655C22.2208 14.5652 22.4865 13.3148 22.4865 11.8144C22.4865 9.72004 21.9708 7.93826 20.9392 6.46908C19.9389 4.9999 18.5635 3.8902 16.813 3.13998C15.0625 2.38976 13.0931 2.01465 10.905 2.01465C7.59153 2.01465 4.57502 2.87428 1.85547 4.59353V8.57908M7.81034 34.2868C7.24768 34.8807 6.96635 35.6309 6.96635 36.5374C6.96635 37.4439 7.24768 38.1942 7.81034 38.7881C8.40427 39.382 9.15449 39.679 10.061 39.679C10.9675 39.679 11.7021 39.382 12.2648 38.7881C12.8587 38.1942 13.1557 37.4439 13.1557 36.5374" stroke="black" stroke-width="3"/>
</svg>
