<svg width="280" height="279" viewBox="0 0 280 279" fill="none" xmlns="http://www.w3.org/2000/svg">
<path fill-rule="evenodd" clip-rule="evenodd" d="M207.47 145.716V151.642C207.47 160.504 208.414 166.385 210.205 171.858C212.005 177.357 214.701 182.62 218.692 190.409L219.786 192.545C226.137 187.734 235.224 188.225 241.017 194.018C245.564 198.565 246.844 205.141 244.858 210.831L273.228 239.2C282.254 248.226 282.254 262.86 273.228 271.886C264.202 280.912 249.568 280.912 240.542 271.886L212.172 243.517C206.482 245.503 199.906 244.223 195.359 239.676C189.03 233.347 189.03 223.085 195.359 216.756L195.674 216.44L193.753 215.005C186.241 209.391 182.005 206.877 177.426 205.518C172.696 204.115 167.169 203.802 156.628 203.684L150.769 203.618V145.716H207.47ZM198.942 175.544C197.159 170.094 196.124 164.49 195.765 157.567H170.13L183.151 170.588C183.819 170.432 184.515 170.349 185.23 170.349C190.267 170.349 194.35 174.432 194.35 179.469C194.35 184.505 190.267 188.588 185.23 188.588C180.194 188.588 176.111 184.505 176.111 179.469C176.111 178.46 176.275 177.49 176.577 176.584L162.62 162.627V191.934C169.92 192.122 175.554 192.601 180.798 194.157C186.246 195.774 190.993 198.461 196.694 202.484L206.526 192.652C203.378 186.479 200.777 181.152 198.942 175.544Z" fill="url(#paint0_linear)"/>
<path fill-rule="evenodd" clip-rule="evenodd" d="M129.697 0.605469L141.073 11.9816L136.826 16.2288C153.706 32.4909 164.213 55.3356 164.213 80.6305C164.213 97.1756 159.719 112.671 151.885 125.963L213.705 64.1435C212.668 62.8912 211.883 61.398 211.445 59.7212C209.844 53.5818 213.523 47.3068 219.663 45.7057C225.802 44.1046 232.077 47.7836 233.678 53.923C235.279 60.0624 231.6 66.3373 225.461 67.9385C222.744 68.647 220.001 68.3216 217.648 67.2066L147.03 137.824L150.192 140.987L138.379 152.8L135.216 149.638L64.304 220.55C64.5613 221.125 64.7746 221.729 64.9388 222.358C66.5399 228.498 62.8608 234.773 56.7214 236.374C50.5819 237.975 44.307 234.296 42.7059 228.156C41.1048 222.017 44.7838 215.742 50.9232 214.141C54.709 213.154 58.5464 214.174 61.3076 216.541L120.13 157.719C106.838 165.552 91.3423 170.046 74.7973 170.046C52.5771 170.046 32.2449 161.938 16.6067 148.522L12.203 152.926L0.82695 141.549L12.203 130.173L23.5791 141.549L20.1204 145.008C34.8557 157.536 53.9411 165.092 74.7973 165.092C95.935 165.092 115.259 157.327 130.073 144.494L126.397 140.818L138.21 129.005L141.568 132.362C152.657 118.069 159.259 100.121 159.259 80.6305C159.259 56.7035 149.312 35.1032 133.322 19.7323L129.697 23.3577L118.321 11.9816L129.697 0.605469ZM129.697 7.61118L134.067 11.9816L129.697 16.3519L125.326 11.9816L129.697 7.61118ZM224.211 63.145C220.719 64.0557 217.149 61.9631 216.239 58.4711C215.328 54.979 217.421 51.4099 220.913 50.4992C224.405 49.5885 227.974 51.6811 228.885 55.1731C229.795 58.6651 227.703 62.2343 224.211 63.145ZM16.5734 141.549L12.203 137.179L7.83266 141.549L12.203 145.92L16.5734 141.549ZM47.4993 226.906C48.41 230.398 51.9792 232.491 55.4713 231.58C58.9634 230.669 61.056 227.1 60.1453 223.608C59.2346 220.116 55.6655 218.024 52.1733 218.934C48.6812 219.845 46.5886 223.414 47.4993 226.906Z" fill="url(#paint1_linear)"/>
<defs>
<linearGradient id="paint0_linear" x1="195.949" y1="127.111" x2="224.63" y2="311.224" gradientUnits="userSpaceOnUse">
<stop stop-color="#EBFF01"/>
<stop offset="1" stop-color="#FF0000"/>
</linearGradient>
<linearGradient id="paint1_linear" x1="70.0386" y1="70.4243" x2="175.231" y2="183.042" gradientUnits="userSpaceOnUse">
<stop stop-color="#13FFBE"/>
<stop offset="1" stop-color="#4200FF"/>
</linearGradient>
</defs>
</svg>
