<svg width="962" height="490" viewBox="0 0 962 490" fill="none" xmlns="http://www.w3.org/2000/svg">
<path d="M1177.35 354.84C1177.35 456.335 913.833 489.867 588.768 489.867C263.703 489.867 0.185547 456.335 0.185547 354.84C0.185547 253.345 263.703 210.212 588.768 210.212C913.833 210.212 1177.35 253.345 1177.35 354.84Z" fill="url(#paint0_linear)"/>
<path d="M470.8 286.932L499.267 250.677L644.823 365.082L616.356 401.605L470.8 286.932ZM471.605 399.188C444.392 399.188 420.401 393.28 399.633 381.463C378.865 369.468 362.751 352.639 351.293 330.975C340.014 309.133 334.374 283.889 334.374 255.243V144.598C334.374 115.952 340.014 90.7977 351.293 69.1343C362.751 47.2918 378.865 30.4624 399.633 18.646C420.401 6.65055 444.392 0.652832 471.605 0.652832C498.819 0.652832 522.81 6.65055 543.578 18.646C564.346 30.4624 580.37 47.2918 591.649 69.1343C603.108 90.7977 608.837 115.952 608.837 144.598V255.243C608.837 283.889 603.108 309.133 591.649 330.975C580.37 352.639 564.346 369.468 543.578 381.463C522.81 393.28 498.819 399.188 471.605 399.188ZM471.605 345.208C487.719 345.208 501.863 341.628 514.037 334.466C526.391 327.126 535.88 316.831 542.504 303.583C549.307 290.155 552.709 274.668 552.709 257.123V142.718C552.709 125.173 549.307 109.776 542.504 96.5269C535.88 83.0991 526.391 72.8045 514.037 65.6431C501.863 58.3026 487.719 54.6323 471.605 54.6323C455.492 54.6323 441.259 58.3026 428.905 65.6431C416.731 72.8045 407.242 83.0991 400.438 96.5269C393.814 109.776 390.502 125.173 390.502 142.718V257.123C390.502 274.668 393.814 290.155 400.438 303.583C407.242 316.831 416.731 327.126 428.905 334.466C441.259 341.628 455.492 345.208 471.605 345.208Z" fill="url(#paint1_linear)"/>
<path d="M791.546 16.5398H838.274L982.22 407.018H923.138L814.91 92.0037L706.683 407.018H647.601L791.546 16.5398ZM713.934 269.25H919.378V321.349H713.934V269.25Z" fill="url(#paint2_linear)"/>
<path d="M698.441 247.678H759.965V253.098C751.469 253.781 745.17 255.686 741.068 258.811C737.064 261.838 730.766 271.115 722.172 286.643C713.578 302.17 703.91 316.672 693.168 330.148C701.859 340.305 709.623 347.434 716.459 351.535C723.295 355.539 730.18 357.541 737.113 357.541C743.852 357.541 749.564 355.734 754.252 352.121C758.939 348.41 762.26 342.99 764.213 335.861L769.633 339.816C766.02 353.586 760.209 363.742 752.201 370.285C744.193 376.828 734.867 380.1 724.223 380.1C716.215 380.1 708.061 377.951 699.76 373.654C691.557 369.26 682.572 361.887 672.807 351.535C660.697 362.277 649.76 369.748 639.994 373.947C630.326 378.049 619.975 380.1 608.939 380.1C592.826 380.1 580.033 375.803 570.561 367.209C561.088 358.615 556.352 348.361 556.352 336.447C556.352 324.631 560.6 312.863 569.096 301.145C577.592 289.328 593.559 277.121 616.996 264.523C612.406 254.367 609.281 246.066 607.621 239.621C605.961 233.078 605.131 226.828 605.131 220.871C605.131 204.172 611.283 191.428 623.588 182.639C633.158 175.803 644.047 172.385 656.254 172.385C667.875 172.385 677.348 175.852 684.672 182.785C691.996 189.621 695.658 198.068 695.658 208.127C695.658 218.479 692.094 227.561 684.965 235.373C677.934 243.186 665.434 251.73 647.465 261.008C659.867 283.078 672.807 303.293 686.283 321.652C703.471 301.145 712.064 283.859 712.064 269.797C712.064 265.305 710.6 261.301 707.67 257.785C705.521 255.148 702.445 253.586 698.441 253.098V247.678ZM642.484 251.486C654.594 245.725 663.627 239.182 669.584 231.857C675.639 224.533 678.666 216.379 678.666 207.395C678.666 200.363 676.469 194.553 672.074 189.963C667.777 185.373 662.406 183.078 655.961 183.078C647.465 183.078 641.02 186.057 636.625 192.014C632.328 197.873 630.18 203.635 630.18 209.299C630.18 214.084 631.01 219.455 632.67 225.412C634.33 231.271 637.602 239.963 642.484 251.486ZM665.189 343.039C652.299 325.461 643.363 312.619 638.383 304.514C633.402 296.408 627.934 286.35 621.977 274.338C610.258 281.076 601.42 288.498 595.463 296.604C589.604 304.709 586.674 313.498 586.674 322.971C586.674 333.42 590.043 342.6 596.781 350.51C603.52 358.42 612.602 362.375 624.027 362.375C630.18 362.375 636.088 361.154 641.752 358.713C647.514 356.271 655.326 351.047 665.189 343.039Z" fill="#4486F7" fill-opacity="0.8"/>
<defs>
<linearGradient id="paint0_linear" x1="1310.05" y1="541.364" x2="599.775" y2="-32.051" gradientUnits="userSpaceOnUse">
<stop stop-color="#EB00FF" stop-opacity="0.99"/>
<stop offset="0.266351" stop-color="#DB50E7" stop-opacity="0.25"/>
<stop offset="0.651042" stop-color="#EB00FF" stop-opacity="0.1"/>
<stop offset="1" stop-color="#EB00FF" stop-opacity="0"/>
</linearGradient>
<linearGradient id="paint1_linear" x1="516.607" y1="-162.044" x2="389.619" y2="533.743" gradientUnits="userSpaceOnUse">
<stop stop-color="#FF0000"/>
<stop offset="1" stop-color="#FDBE00"/>
</linearGradient>
<linearGradient id="paint2_linear" x1="851.308" y1="-85.206" x2="770.028" y2="480.215" gradientUnits="userSpaceOnUse">
<stop stop-color="#FF0000"/>
<stop offset="1" stop-color="#FDBE00"/>
</linearGradient>
</defs>
</svg>
