<svg width="628" height="408" viewBox="0 0 628 408" fill="none" xmlns="http://www.w3.org/2000/svg">
<path d="M136.8 286.933L165.267 250.678L310.823 365.082L282.356 401.605L136.8 286.933ZM137.605 399.188C110.392 399.188 86.401 393.28 65.6328 381.464C44.8646 369.468 28.7513 352.639 17.293 330.976C6.01367 309.133 0.374023 283.889 0.374023 255.243V144.599C0.374023 115.953 6.01367 90.7982 17.293 69.1348C28.7513 47.2923 44.8646 30.4629 65.6328 18.6465C86.401 6.65104 110.392 0.65332 137.605 0.65332C164.819 0.65332 188.81 6.65104 209.578 18.6465C230.346 30.4629 246.37 47.2923 257.649 69.1348C269.108 90.7982 274.837 115.953 274.837 144.599V255.243C274.837 283.889 269.108 309.133 257.649 330.976C246.37 352.639 230.346 369.468 209.578 381.464C188.81 393.28 164.819 399.188 137.605 399.188ZM137.605 345.209C153.719 345.209 167.863 341.628 180.037 334.467C192.391 327.126 201.88 316.832 208.504 303.583C215.307 290.155 218.709 274.669 218.709 257.123V142.719C218.709 125.173 215.307 109.776 208.504 96.5273C201.88 83.0996 192.391 72.805 180.037 65.6436C167.863 58.3031 153.719 54.6328 137.605 54.6328C121.492 54.6328 107.259 58.3031 94.9053 65.6436C82.7308 72.805 73.2419 83.0996 66.4385 96.5273C59.8141 109.776 56.502 125.173 56.502 142.719V257.123C56.502 274.669 59.8141 290.155 66.4385 303.583C73.2419 316.832 82.7308 327.126 94.9053 334.467C107.259 341.628 121.492 345.209 137.605 345.209Z" fill="url(#paint0_linear)"/>
<path d="M457.546 16.5403H504.274L648.22 407.019H589.138L480.91 92.0042L372.683 407.019H313.601L457.546 16.5403ZM379.934 269.25H585.378V321.35H379.934V269.25Z" fill="url(#paint1_linear)"/>
<path d="M364.441 247.678H425.965V253.098C417.469 253.782 411.17 255.686 407.068 258.811C403.064 261.838 396.766 271.116 388.172 286.643C379.578 302.17 369.91 316.672 359.168 330.149C367.859 340.305 375.623 347.434 382.459 351.536C389.295 355.54 396.18 357.542 403.113 357.542C409.852 357.542 415.564 355.735 420.252 352.122C424.939 348.411 428.26 342.991 430.213 335.862L435.633 339.817C432.02 353.586 426.209 363.743 418.201 370.286C410.193 376.829 400.867 380.1 390.223 380.1C382.215 380.1 374.061 377.952 365.76 373.655C357.557 369.26 348.572 361.887 338.807 351.536C326.697 362.278 315.76 369.749 305.994 373.948C296.326 378.049 285.975 380.1 274.939 380.1C258.826 380.1 246.033 375.803 236.561 367.209C227.088 358.616 222.352 348.362 222.352 336.448C222.352 324.631 226.6 312.864 235.096 301.145C243.592 289.329 259.559 277.122 282.996 264.524C278.406 254.368 275.281 246.067 273.621 239.622C271.961 233.079 271.131 226.829 271.131 220.872C271.131 204.172 277.283 191.428 289.588 182.639C299.158 175.803 310.047 172.385 322.254 172.385C333.875 172.385 343.348 175.852 350.672 182.786C357.996 189.622 361.658 198.069 361.658 208.127C361.658 218.479 358.094 227.561 350.965 235.374C343.934 243.186 331.434 251.731 313.465 261.008C325.867 283.079 338.807 303.293 352.283 321.653C369.471 301.145 378.064 283.86 378.064 269.797C378.064 265.305 376.6 261.301 373.67 257.786C371.521 255.149 368.445 253.586 364.441 253.098V247.678ZM308.484 251.487C320.594 245.725 329.627 239.182 335.584 231.858C341.639 224.534 344.666 216.379 344.666 207.395C344.666 200.364 342.469 194.553 338.074 189.963C333.777 185.374 328.406 183.079 321.961 183.079C313.465 183.079 307.02 186.057 302.625 192.014C298.328 197.874 296.18 203.635 296.18 209.299C296.18 214.084 297.01 219.456 298.67 225.413C300.33 231.272 303.602 239.963 308.484 251.487ZM331.189 343.04C318.299 325.461 309.363 312.62 304.383 304.514C299.402 296.409 293.934 286.35 287.977 274.338C276.258 281.077 267.42 288.499 261.463 296.604C255.604 304.709 252.674 313.499 252.674 322.971C252.674 333.42 256.043 342.6 262.781 350.51C269.52 358.42 278.602 362.375 290.027 362.375C296.18 362.375 302.088 361.155 307.752 358.713C313.514 356.272 321.326 351.047 331.189 343.04Z" fill="#4486F7" fill-opacity="0.8"/>
<defs>
<linearGradient id="paint0_linear" x1="182.607" y1="-162.043" x2="55.6189" y2="533.744" gradientUnits="userSpaceOnUse">
<stop stop-color="#FF0000"/>
<stop offset="1" stop-color="#FDBE00"/>
</linearGradient>
<linearGradient id="paint1_linear" x1="517.308" y1="-85.2055" x2="436.028" y2="480.215" gradientUnits="userSpaceOnUse">
<stop stop-color="#FF0000"/>
<stop offset="1" stop-color="#FDBE00"/>
</linearGradient>
</defs>
</svg>
