<svg width="38" height="38" viewBox="0 0 38 38" fill="none" xmlns="http://www.w3.org/2000/svg">
<path d="M22.6274 36.7695L0.523746 14.6658L1.95211 1.95231L14.6659 0.523659L36.7695 22.6273L22.6274 36.7695ZM13.5 10C13.5 11.933 11.933 13.5 10 13.5C8.067 13.5 6.5 11.933 6.5 10C6.5 8.067 8.067 6.5 10 6.5C11.933 6.5 13.5 8.067 13.5 10ZM10 14.5C12.4853 14.5 14.5 12.4853 14.5 10C14.5 7.51471 12.4853 5.5 10 5.5C7.51472 5.5 5.5 7.51471 5.5 10C5.5 12.4853 7.51472 14.5 10 14.5Z" fill="white" stroke="black"/>
</svg>
