<svg width="1005" height="610" viewBox="0 0 1005 610" fill="none" xmlns="http://www.w3.org/2000/svg">
<mask id="mask0" mask-type="alpha" maskUnits="userSpaceOnUse" x="394" y="0" width="611" height="610">
<ellipse rx="305.5" ry="305" transform="matrix(-1 0 0 1 699.5 305)" fill="#C4C4C4"/>
</mask>
<g mask="url(#mask0)">
<path d="M1199 346.879C1188.93 293.578 1125.8 168.237 953.844 93.2803C781.886 18.3235 742.511 -121.472 744.318 -182M1191.25 354.622C1181.18 301.321 1118.06 175.981 946.098 101.024C774.14 26.067 734.765 -113.728 736.572 -174.257M1183.51 362.366C1173.44 309.065 1110.31 183.724 938.352 108.767C766.394 33.8104 727.019 -105.985 728.827 -166.513M1175.76 370.109C1165.69 316.808 1102.56 191.467 930.606 116.511C758.648 41.5539 719.273 -98.2415 721.081 -158.77M1168.02 377.853C1157.95 324.552 1094.82 199.211 922.86 124.254C750.902 49.2974 711.527 -90.498 713.335 -151.026M1160.27 385.596C1150.2 332.295 1087.07 206.954 915.114 131.998C743.156 57.0408 703.782 -82.7546 705.589 -143.283M1152.52 393.34C1142.46 340.039 1079.33 214.698 907.368 139.741C735.41 64.7843 696.036 -75.0111 697.843 -135.539M1144.78 401.083C1134.71 347.782 1071.58 222.441 899.623 147.485C727.665 72.5278 688.29 -67.2676 690.097 -127.796M1137.03 408.827C1126.96 355.526 1063.83 230.185 891.877 155.228C719.919 80.2712 680.544 -59.5242 682.351 -120.052M1129.29 416.57C1119.22 363.269 1056.09 237.928 884.131 162.971C712.173 88.0147 672.798 -51.7807 674.606 -112.309M1121.54 424.314C1111.47 371.013 1048.34 245.672 876.385 170.715C704.427 95.7582 665.052 -44.0372 666.86 -104.565M1113.8 432.057C1103.73 378.756 1040.6 253.415 868.639 178.458C696.681 103.502 657.306 -36.2938 659.114 -96.8219M1106.05 439.8C1095.98 386.5 1032.85 261.159 860.893 186.202C688.935 111.245 649.561 -28.5503 651.368 -89.0784M1098.3 447.544C1088.23 394.243 1025.11 268.902 853.148 193.945C681.189 118.989 641.815 -20.8068 643.622 -81.3349M1090.56 455.287C1080.49 401.987 1017.36 276.646 845.402 201.689C673.444 126.732 634.069 -13.0633 635.876 -73.5915M1082.81 463.031C1072.74 409.73 1009.61 284.389 837.656 209.432C665.698 134.476 626.323 -5.31988 628.13 -65.848M1075.07 470.774C1065 417.473 1001.87 292.133 829.91 217.176C657.952 142.219 618.577 2.42359 620.385 -58.1045M1067.32 478.518C1057.25 425.217 994.122 299.876 822.164 224.919C650.206 149.962 610.831 10.1671 612.639 -50.361M1059.57 486.261C1049.5 432.96 986.376 307.619 814.418 232.663C642.46 157.706 603.085 17.9105 604.893 -42.6176M1051.83 494.005C1041.76 440.704 978.63 315.363 806.672 240.406C634.714 165.449 595.34 25.654 597.147 -34.8741M1044.08 501.748C1034.01 448.447 970.885 323.106 798.927 248.15C626.968 173.193 587.594 33.3975 589.401 -27.1306M1036.34 509.492C1026.27 456.191 963.139 330.85 791.181 255.893C619.223 180.936 579.848 41.1409 581.655 -19.3872M1028.59 517.235C1018.52 463.934 955.393 338.593 783.435 263.637C611.477 188.68 572.102 48.8844 573.909 -11.6437M1020.85 524.979C1010.78 471.678 947.647 346.337 775.689 271.38C603.731 196.423 564.356 56.6279 566.164 -3.90024M1013.1 532.722C1003.03 479.421 939.901 354.08 767.943 279.124C595.985 204.167 556.61 64.3713 558.418 3.84322M1005.35 540.466C995.284 487.165 932.155 361.824 760.197 286.867C588.239 211.91 548.864 72.1148 550.672 11.5867M997.608 548.209C987.538 494.908 924.409 369.567 752.451 294.61C580.493 219.654 541.119 79.8583 542.926 19.3302M989.862 555.952C979.792 502.652 916.664 377.311 744.706 302.354C572.747 227.397 533.373 87.6017 535.18 27.0736M982.116 563.696C972.046 510.395 908.918 385.054 736.96 310.097C565.002 235.141 525.627 95.3452 527.434 34.8171M974.37 571.439C964.301 518.139 901.172 392.798 729.214 317.841C557.256 242.884 517.881 103.089 519.688 42.5606M966.624 579.183C956.555 525.882 893.426 400.541 721.468 325.584C549.51 250.628 510.135 110.832 511.943 50.304M958.878 586.926C948.809 533.625 885.68 408.285 713.722 333.328C541.764 258.371 502.389 118.576 504.197 58.0475M951.133 594.67C941.063 541.369 877.934 416.028 705.976 341.071C534.018 266.114 494.643 126.319 496.451 65.791M943.387 602.413C933.317 549.112 870.188 423.771 698.23 348.815C526.272 273.858 486.898 134.063 488.705 73.5344M935.641 610.157C925.571 556.856 862.443 431.515 690.485 356.558C518.526 281.601 479.152 141.806 480.959 81.2779M927.895 617.9C917.825 564.599 854.697 439.258 682.739 364.302C510.781 289.345 471.406 149.549 473.213 89.0214M920.149 625.644C910.08 572.343 846.951 447.002 674.993 372.045C503.035 297.088 463.66 157.293 465.467 96.7648M912.403 633.387C902.334 580.086 839.205 454.745 667.247 379.789C495.289 304.832 455.914 165.036 457.722 104.508M904.657 641.131C894.588 587.83 831.459 462.489 659.501 387.532C487.543 312.575 448.168 172.78 449.976 112.252M896.912 648.874C886.842 595.573 823.713 470.232 651.755 395.276C479.797 320.319 440.422 180.523 442.23 119.995M889.166 656.618C879.096 603.317 815.967 477.976 644.009 403.019C472.051 328.062 432.677 188.267 434.484 127.739M881.42 664.361C871.35 611.06 808.222 485.719 636.264 410.762C464.305 335.806 424.931 196.01 426.738 135.482M873.674 672.104C863.604 618.804 800.476 493.463 628.518 418.506C456.56 343.549 417.185 203.754 418.992 143.226M865.928 679.848C855.859 626.547 792.73 501.206 620.772 426.249C448.814 351.293 409.439 211.497 411.246 150.969M858.182 687.591C848.113 634.291 784.984 508.95 613.026 433.993C441.068 359.036 401.693 219.241 403.501 158.713M850.436 695.335C840.367 642.034 777.238 516.693 605.28 441.736C433.322 366.78 393.947 226.984 395.755 166.456M842.691 703.078C832.621 649.777 769.492 524.437 597.534 449.48C425.576 374.523 386.201 234.728 388.009 174.2M834.945 710.822C824.875 657.521 761.746 532.18 589.788 457.223C417.83 382.266 378.456 242.471 380.263 181.943M827.199 718.565C817.129 665.264 754.001 539.923 582.043 464.967C410.085 390.01 370.71 250.215 372.517 189.686M819.453 726.309C809.383 673.008 746.255 547.667 574.297 472.71C402.339 397.753 362.964 257.958 364.771 197.43M811.707 734.052C801.638 680.751 738.509 555.41 566.551 480.454C394.593 405.497 355.218 265.701 357.025 205.173M803.961 741.796C793.892 688.495 730.763 563.154 558.805 488.197C386.847 413.24 347.472 273.445 349.28 212.917M796.215 749.539C786.146 696.238 723.017 570.897 551.059 495.941C379.101 420.984 339.726 281.188 341.534 220.66M788.47 757.283C778.4 703.982 715.271 578.641 543.313 503.684C371.355 428.727 331.98 288.932 333.788 228.404M780.724 765.026C770.654 711.725 707.525 586.384 535.567 511.428C363.609 436.471 324.235 296.675 326.042 236.147M772.978 772.77C762.908 719.469 699.78 594.128 527.822 519.171C355.864 444.214 316.489 304.419 318.296 243.891M765.232 780.513C755.162 727.212 692.034 601.871 520.076 526.914C348.118 451.958 308.743 312.162 310.55 251.634M757.486 788.257C747.417 734.956 684.288 609.615 512.33 534.658C340.372 459.701 300.997 319.906 302.804 259.378M749.74 796C739.671 742.699 676.542 617.358 504.584 542.401C332.626 467.445 293.251 327.649 295.059 267.121" stroke="url(#paint0_linear)" stroke-width="3"/>
</g>
<mask id="mask1" mask-type="alpha" maskUnits="userSpaceOnUse" x="0" y="0" width="611" height="610">
<ellipse cx="305.5" cy="305" rx="305.5" ry="305" fill="#C4C4C4"/>
</mask>
<g mask="url(#mask1)">
<path d="M-194 346.879C-183.93 293.578 -120.802 168.237 51.1564 93.2803C223.114 18.3235 262.489 -121.472 260.682 -182M-186.254 354.622C-176.185 301.321 -113.056 175.981 58.9022 101.024C230.86 26.067 270.235 -113.728 268.428 -174.257M-178.508 362.366C-168.439 309.065 -105.31 183.724 66.6481 108.767C238.606 33.8104 277.981 -105.985 276.173 -166.513M-170.762 370.109C-160.693 316.808 -97.5641 191.467 74.3939 116.511C246.352 41.5539 285.727 -98.2415 283.919 -158.77M-163.017 377.853C-152.947 324.552 -89.8182 199.211 82.1398 124.254C254.098 49.2974 293.473 -90.498 291.665 -151.026M-155.271 385.596C-145.201 332.295 -82.0724 206.954 89.8856 131.998C261.844 57.0408 301.218 -82.7546 299.411 -143.283M-147.525 393.34C-137.455 340.039 -74.3265 214.698 97.6315 139.741C269.59 64.7843 308.964 -75.0111 307.157 -135.539M-139.779 401.083C-129.709 347.782 -66.5807 222.441 105.377 147.485C277.335 72.5278 316.71 -67.2676 314.903 -127.796M-132.033 408.827C-121.964 355.526 -58.8348 230.185 113.123 155.228C285.081 80.2712 324.456 -59.5242 322.649 -120.052M-124.287 416.57C-114.218 363.269 -51.0889 237.928 120.869 162.971C292.827 88.0147 332.202 -51.7807 330.394 -112.309M-116.541 424.314C-106.472 371.013 -43.3431 245.672 128.615 170.715C300.573 95.7582 339.948 -44.0372 338.14 -104.565M-108.796 432.057C-98.726 378.756 -35.5972 253.415 136.361 178.458C308.319 103.502 347.694 -36.2938 345.886 -96.8219M-101.05 439.8C-90.9801 386.5 -27.8514 261.159 144.107 186.202C316.065 111.245 355.439 -28.5503 353.632 -89.0784M-93.3039 447.544C-83.2343 394.243 -20.1055 268.902 151.852 193.945C323.811 118.989 363.185 -20.8068 361.378 -81.3349M-85.558 455.287C-75.4884 401.987 -12.3597 276.646 159.598 201.689C331.556 126.732 370.931 -13.0633 369.124 -73.5915M-77.8122 463.031C-67.7425 409.73 -4.61381 284.389 167.344 209.432C339.302 134.476 378.677 -5.31988 376.87 -65.848M-70.0663 470.774C-59.9967 417.473 3.13205 292.133 175.09 217.176C347.048 142.219 386.423 2.42359 384.615 -58.1045M-62.3204 478.518C-52.2508 425.217 10.8779 299.876 182.836 224.919C354.794 149.962 394.169 10.1671 392.361 -50.361M-54.5746 486.261C-44.505 432.96 18.6238 307.619 190.582 232.663C362.54 157.706 401.915 17.9105 400.107 -42.6176M-46.8287 494.005C-36.7591 440.704 26.3696 315.363 198.328 240.406C370.286 165.449 409.66 25.654 407.853 -34.8741M-39.0829 501.748C-29.0133 448.447 34.1155 323.106 206.073 248.15C378.032 173.193 417.406 33.3975 415.599 -27.1306M-31.337 509.492C-21.2674 456.191 41.8613 330.85 213.819 255.893C385.777 180.936 425.152 41.1409 423.345 -19.3872M-23.5912 517.235C-13.5215 463.934 49.6072 338.593 221.565 263.637C393.523 188.68 432.898 48.8844 431.091 -11.6437M-15.8453 524.979C-5.77568 471.678 57.353 346.337 229.311 271.38C401.269 196.423 440.644 56.6279 438.836 -3.90024M-8.09944 532.722C1.97017 479.421 65.0989 354.08 237.057 279.124C409.015 204.167 448.39 64.3713 446.582 3.84322M-0.353584 540.466C9.71603 487.165 72.8448 361.824 244.803 286.867C416.761 211.91 456.136 72.1148 454.328 11.5867M7.39227 548.209C17.4619 494.908 80.5906 369.567 252.549 294.61C424.507 219.654 463.881 79.8583 462.074 19.3302M15.1381 555.952C25.2077 502.652 88.3365 377.311 260.294 302.354C432.253 227.397 471.627 87.6017 469.82 27.0736M22.884 563.696C32.9536 510.395 96.0823 385.054 268.04 310.097C439.998 235.141 479.373 95.3452 477.566 34.8171M30.6298 571.439C40.6995 518.139 103.828 392.798 275.786 317.841C447.744 242.884 487.119 103.089 485.312 42.5606M38.3757 579.183C48.4453 525.882 111.574 400.541 283.532 325.584C455.49 250.628 494.865 110.832 493.057 50.304M46.1216 586.926C56.1912 533.625 119.32 408.285 291.278 333.328C463.236 258.371 502.611 118.576 500.803 58.0475M53.8674 594.67C63.937 541.369 127.066 416.028 299.024 341.071C470.982 266.114 510.357 126.319 508.549 65.791M61.6133 602.413C71.6829 549.112 134.812 423.771 306.77 348.815C478.728 273.858 518.102 134.063 516.295 73.5344M69.3591 610.157C79.4287 556.856 142.557 431.515 314.515 356.558C486.474 281.601 525.848 141.806 524.041 81.2779M77.105 617.9C87.1746 564.599 150.303 439.258 322.261 364.302C494.219 289.345 533.594 149.549 531.787 89.0214M84.8508 625.644C94.9205 572.343 158.049 447.002 330.007 372.045C501.965 297.088 541.34 157.293 539.533 96.7648M92.5967 633.387C102.666 580.086 165.795 454.745 337.753 379.789C509.711 304.832 549.086 165.036 547.278 104.508M100.343 641.131C110.412 587.83 173.541 462.489 345.499 387.532C517.457 312.575 556.832 172.78 555.024 112.252M108.088 648.874C118.158 595.573 181.287 470.232 353.245 395.276C525.203 320.319 564.578 180.523 562.77 119.995M115.834 656.618C125.904 603.317 189.033 477.976 360.991 403.019C532.949 328.062 572.323 188.267 570.516 127.739M123.58 664.361C133.65 611.06 196.778 485.719 368.736 410.762C540.695 335.806 580.069 196.01 578.262 135.482M131.326 672.104C141.396 618.804 204.524 493.463 376.482 418.506C548.44 343.549 587.815 203.754 586.008 143.226M139.072 679.848C149.141 626.547 212.27 501.206 384.228 426.249C556.186 351.293 595.561 211.497 593.754 150.969M146.818 687.591C156.887 634.291 220.016 508.95 391.974 433.993C563.932 359.036 603.307 219.241 601.499 158.713M154.564 695.335C164.633 642.034 227.762 516.693 399.72 441.736C571.678 366.78 611.053 226.984 609.245 166.456M162.309 703.078C172.379 649.777 235.508 524.437 407.466 449.48C579.424 374.523 618.799 234.728 616.991 174.2M170.055 710.822C180.125 657.521 243.254 532.18 415.212 457.223C587.17 382.266 626.544 242.471 624.737 181.943M177.801 718.565C187.871 665.264 250.999 539.923 422.957 464.967C594.915 390.01 634.29 250.215 632.483 189.686M185.547 726.309C195.617 673.008 258.745 547.667 430.703 472.71C602.661 397.753 642.036 257.958 640.229 197.43M193.293 734.052C203.362 680.751 266.491 555.41 438.449 480.454C610.407 405.497 649.782 265.701 647.975 205.173M201.039 741.796C211.108 688.495 274.237 563.154 446.195 488.197C618.153 413.24 657.528 273.445 655.72 212.917M208.785 749.539C218.854 696.238 281.983 570.897 453.941 495.941C625.899 420.984 665.274 281.188 663.466 220.66M216.53 757.283C226.6 703.982 289.729 578.641 461.687 503.684C633.645 428.727 673.02 288.932 671.212 228.404M224.276 765.026C234.346 711.725 297.475 586.384 469.433 511.428C641.391 436.471 680.765 296.675 678.958 236.147M232.022 772.77C242.092 719.469 305.22 594.128 477.178 519.171C649.136 444.214 688.511 304.419 686.704 243.891M239.768 780.513C249.838 727.212 312.966 601.871 484.924 526.914C656.882 451.958 696.257 312.162 694.45 251.634M247.514 788.257C257.583 734.956 320.712 609.615 492.67 534.658C664.628 459.701 704.003 319.906 702.196 259.378M255.26 796C265.329 742.699 328.458 617.358 500.416 542.401C672.374 467.445 711.749 327.649 709.941 267.121" stroke="url(#paint1_linear)" stroke-width="3"/>
</g>
<defs>
<linearGradient id="paint0_linear" x1="1162.21" y1="-159.157" x2="233.389" y2="805.966" gradientUnits="userSpaceOnUse">
<stop stop-color="#4200FF"/>
<stop offset="1" stop-color="#42FF00"/>
</linearGradient>
<linearGradient id="paint1_linear" x1="-157.207" y1="-159.157" x2="771.611" y2="805.966" gradientUnits="userSpaceOnUse">
<stop stop-color="#FF0000"/>
<stop offset="1" stop-color="#4200FF"/>
</linearGradient>
</defs>
</svg>
