<svg width="1296" height="1176" viewBox="0 0 1296 1176" fill="none" xmlns="http://www.w3.org/2000/svg">
<path d="M674.509 48.4835C468.865 -56.4953 350.88 27.9128 203.224 143.934C-77.1663 364.252 -90.2863 988.669 310.605 1050.71C711.496 1112.75 659.596 779.275 740.132 704.704C852.485 585.391 1238.26 591.357 1220.37 412.388C1163.69 302.023 896.666 161.892 674.509 48.4835Z" fill="#F54D27" fill-opacity="0.61"/>
<path d="M749.079 165.861C543.435 60.8825 425.45 145.291 277.794 261.312C-2.59596 481.629 -15.716 1106.05 385.175 1168.09C786.066 1230.13 734.166 896.652 814.702 822.082C927.055 702.769 1312.83 708.735 1294.94 529.766C1238.26 419.401 971.236 279.27 749.079 165.861Z" fill="#F54D27" fill-opacity="0.24"/>
</svg>
