<svg width="1728" height="1107" viewBox="0 0 1728 1107" fill="none" xmlns="http://www.w3.org/2000/svg">
<path d="M526.107 229.46C-223.558 -57.9111 -10.1116 281.52 190.32 487.157C218.953 684.985 343.378 1085.33 612.007 1104.07C880.637 1122.81 1119.59 1038.99 1205.49 994.743C1499.63 781.297 1973.9 360.651 1517.85 385.64C947.794 416.876 1463.19 588.674 526.107 229.46Z" fill="#FFCA2A" fill-opacity="0.43"/>
<path d="M546.453 111.529C-203.212 -175.843 10.2341 163.589 210.666 369.226C239.299 567.054 363.723 967.396 632.353 986.137C900.983 1004.88 1139.94 921.062 1225.84 876.811C1519.98 663.365 1994.24 242.72 1538.2 267.709C968.14 298.945 1483.53 470.743 546.453 111.529Z" fill="#FFCA2A" fill-opacity="0.66"/>
</svg>
