<svg width="1720" height="447" viewBox="0 0 1720 447" fill="none" xmlns="http://www.w3.org/2000/svg">
<path d="M1023.42 128.664C1240.33 31.6702 1504.71 16.2393 1609.79 20.6481H1638.45L1653.88 446.097H0.578125V58.1227C25.2674 28.1429 231.305 92.6584 331.238 128.664C581.431 218.807 806.507 225.657 1023.42 128.664Z" fill="url(#paint0_linear)" fill-opacity="0.8"/>
<path d="M1088.81 109.486C1305.73 12.4924 1570.11 -2.93843 1675.18 1.47033H1703.84L1719.27 426.919H65.9727V38.945C90.6619 8.96518 296.7 73.4807 396.633 109.486C646.825 199.629 871.901 206.479 1088.81 109.486Z" fill="url(#paint1_linear)" fill-opacity="0.4"/>
<defs>
<linearGradient id="paint0_linear" x1="-79.1769" y1="101.177" x2="1686.55" y2="277.529" gradientUnits="userSpaceOnUse">
<stop stop-color="#FF1203"/>
<stop offset="1" stop-color="#EBFF01"/>
</linearGradient>
<linearGradient id="paint1_linear" x1="-13.7824" y1="81.9991" x2="1751.94" y2="258.351" gradientUnits="userSpaceOnUse">
<stop stop-color="#FF1203"/>
<stop offset="1" stop-color="#EBFF01"/>
</linearGradient>
</defs>
</svg>
