<svg width="1094" height="1176" viewBox="0 0 1094 1176" fill="none" xmlns="http://www.w3.org/2000/svg">
<path d="M472.1 48.5679C266.457 -56.4109 148.472 27.9972 0.815689 144.018C-279.574 364.336 -292.694 988.753 108.197 1050.8C509.088 1112.84 457.187 779.359 537.724 704.788C650.076 585.476 1035.85 591.441 1017.96 412.472C961.284 302.108 694.258 161.977 472.1 48.5679Z" fill="#F54D27" fill-opacity="0.61"/>
<path d="M546.671 165.946C341.027 60.9669 223.042 145.375 75.386 261.396C-205.004 481.714 -218.124 1106.13 182.767 1168.17C583.658 1230.22 531.758 896.737 612.294 822.166C724.647 702.853 1110.43 708.819 1092.53 529.85C1035.85 419.485 768.828 279.355 546.671 165.946Z" fill="#F54D27" fill-opacity="0.24"/>
</svg>
