<svg width="1413" height="1107" viewBox="0 0 1413 1107" fill="none" xmlns="http://www.w3.org/2000/svg">
<path d="M211.005 228.738C-538.66 -58.6335 -325.213 280.798 -124.782 486.435C-96.1483 684.263 28.2759 1084.6 296.906 1103.35C565.535 1122.09 804.491 1038.27 890.39 994.02C1184.53 780.574 1658.8 359.929 1202.75 384.918C632.693 416.154 1148.09 587.952 211.005 228.738Z" fill="#FFCA2A" fill-opacity="0.43"/>
<path d="M231.351 110.806C-518.314 -176.565 -304.867 162.866 -104.436 368.503C-75.8026 566.332 48.6216 966.673 317.251 985.415C585.881 1004.16 824.837 920.34 910.736 876.089C1204.88 662.643 1679.14 241.998 1223.1 266.986C653.039 298.222 1168.43 470.021 231.351 110.806Z" fill="#FFCA2A" fill-opacity="0.66"/>
</svg>
