<svg xmlns="http://www.w3.org/2000/svg" xmlns:xlink="http://www.w3.org/1999/xlink" width="658" height="270" viewBox="0 0 658 270">
  <defs>
    <clipPath id="clip-mblog">
      <rect width="658" height="270"/>
    </clipPath>
  </defs>
  <g id="mblog" clip-path="url(#clip-mblog)">
    <path id="blog_text" data-name="blog text" d="M323.689,90.515l1.657-4.971ZM446.06,33.44l-6.1.017v.174l.014.174Zm-36.648-5.665,4.609,3.384Zm-12.32,90.074-5.716,1.806ZM415.438,146.9l4.484-3.5Zm9.879-48.413-2.779-4.6-.156.067-.151.076Zm69.492,5.176-1.163-5.071-.054.009-.054.01ZM507.6,12.246l-4.406,3.572.319.282.364.238Zm-6.108,127.068-5.93,1.209.043.153.054.15Zm80.394-50.281V83.867h-.208l-.207.012Zm40.735,18.636,5.85-1.463Zm100.83,8.4,4.607,3.385ZM738.087,69.09l4.316-3.651ZM715.6,211.865l5.648,1.951Zm-33.015-48.4,3.754,4.071Zm146.844-51.012.659,5.136ZM687.414,69.09l-1.778-4.941ZM581.886,112.455l-1.5,5.008ZM322.033,95.486c16.668,3.982,31.133,5.716,45.669,4.3s28.67-5.936,44.766-13.823l-6.111-8.941c-15.159,7.428-27.664,11.3-40.048,12.5s-25.164-.207-40.962-3.981Zm90.435-9.522c33.405-16.369,40.638-41.416,39.677-52.889l-12.171.73c.653,7.8-4.515,28.957-33.617,43.217Zm39.693-52.541c-.031-7.74-7.667-14.573-16.453-17.187-9.589-2.852-21.353-1.171-30.9,8.155l9.218,6.768c6.353-6.2,12.893-6.589,17.642-5.176,5.552,1.651,8.288,5.415,8.3,7.475ZM404.8,24.392c-13.34,13.027-18.831,31.807-20.047,49.337-1.222,17.6,1.79,34.965,6.62,45.927l11.431-3.611c-4.121-9.353-7.015-25.239-5.872-41.71,1.148-16.537,6.293-32.637,17.085-43.175Zm-13.427,95.264c3.269,7.418,5.346,12.643,7.927,17.066,2.735,4.689,6.026,8.518,11.649,13.682l8.969-7c-5.12-4.7-7.619-7.721-9.679-11.253-2.215-3.8-3.938-8.167-7.434-16.1ZM410.952,150.4c10.594,9.728,26.521,12.984,39.744,9.948,6.683-1.535,12.845-4.72,17.2-9.652a25.2,25.2,0,0,0,6.148-18.9l-12.181.585c.36,5.369-1.255,9.32-3.738,12.132A19.9,19.9,0,0,1,447.5,150.38c-8.966,2.059-20.162-.169-27.58-6.981Zm63.094-18.609a43.264,43.264,0,0,0-18.409-32.637c-9.61-6.769-22.469-9.872-33.1-5.266l5.559,9.2c4.7-2.035,12.293-1.232,19.739,4.012a33.407,33.407,0,0,1,14.031,25.281ZM422.229,94.033a76.932,76.932,0,0,0-7.945,4.529,28.165,28.165,0,0,0-6.8,5.876,8.392,8.392,0,0,0-1.848,4.668,6.766,6.766,0,0,0,3.033,5.742,14.246,14.246,0,0,0,5.859,2.251,41.02,41.02,0,0,0,7.1.521v-10.33a27.222,27.222,0,0,1-4.576-.3c-.994-.178-.89-.311-.441.014a2.957,2.957,0,0,1,1.221,2.415c-.025.688-.324.923-.063.576a18.014,18.014,0,0,1,4.021-3.29,64.166,64.166,0,0,1,6.613-3.763Zm-.6,23.587c20.285,0,58.282-5.988,74.451-8.9l-2.542-10.1c-16.33,2.945-53.1,8.677-71.909,8.677Zm74.342-8.885c9.11-1.5,22.185-5.874,32.078-14.386,10.179-8.76,16.685-21.683,12.376-39.2L528.479,57.25c3.435,13.967-1.66,23.426-9.129,29.853-7.755,6.673-18.375,10.286-25.706,11.491Zm44.453-53.591c-4.048-16.462-11.1-28.083-17.28-35.664a68.2,68.2,0,0,0-8.07-8.4c-1.066-.926-1.953-1.624-2.6-2.106-.323-.241-.585-.429-.78-.565l-.24-.165-.08-.054-.03-.02-.012-.008-.006,0s0,0-3.728,4.089-3.725,4.09-3.727,4.089l0,0-.007,0-.009-.006s0,0,0,0l.083.057c.089.062.244.173.46.334.43.322,1.1.844,1.942,1.578a57.241,57.241,0,0,1,6.761,7.055c5.314,6.523,11.684,16.877,15.38,31.9ZM507.6,12.246c4.407-3.572,4.4-3.574,4.4-3.576l0,0-.011-.01-.03-.026-.09-.078c-.072-.062-.171-.146-.293-.247-.245-.2-.586-.479-1.013-.806a40.036,40.036,0,0,0-3.512-2.408A26.433,26.433,0,0,0,494.854.954a15.807,15.807,0,0,0-8.3,1.83A15.7,15.7,0,0,0,480.362,9.1c-2.9,5.2-4.244,13.1-3.868,24.484l12.2-.289c-.361-10.924,1.054-16.828,2.7-19.783a4.936,4.936,0,0,1,1.765-2.041,1.9,1.9,0,0,1,1.074-.2,13.517,13.517,0,0,1,5.691,2.205,28.087,28.087,0,0,1,2.447,1.678c.3.227.521.41.664.528l.149.125.024.02h0l0,0,0,0S503.193,15.818,507.6,12.246ZM476.494,33.585c.751,22.713,5.545,49.494,10.1,70.458,2.285,10.512,4.522,19.62,6.19,26.1.835,3.242,1.526,5.829,2.011,7.609.242.89.432,1.579.562,2.047.065.233.116.413.15.534l.039.138.01.036,0,.01a0,0,0,0,1,0,0s0,0,5.931-1.208l5.931-1.209h0a.056.056,0,0,0,0-.007l-.009-.03c-.007-.028-.02-.07-.036-.127-.032-.113-.08-.284-.142-.51-.126-.451-.311-1.122-.548-1.994-.474-1.744-1.156-4.291-1.978-7.489-1.646-6.4-3.856-15.394-6.113-25.773-4.524-20.819-9.18-46.975-9.9-68.877Zm19.165,107.241c3.251,8.99,7.753,15.48,14.662,19.537,6.853,4.024,15.084,5.059,24.131,5.059v-10.33c-8.193,0-13.388-.992-17.178-3.218-3.733-2.192-7.093-6.174-9.949-14.073ZM581.47,83.879a29.434,29.434,0,0,0-20.742,10.636,42.916,42.916,0,0,0-9.37,20.548c-2.532,14.655,1.847,32.651,19.211,40.611l5.81-9.084c-10.756-4.931-15.159-17.235-12.948-30.032a33.483,33.483,0,0,1,7.16-15.961c3.5-4.074,7.555-6.171,11.712-6.411Zm-10.9,71.795c17.6,8.067,34.831.979,45.589-9.712,10.662-10.595,16.957-26.446,12.314-39.756l-11.7,2.926c3.149,9.029-1.07,21.355-9.9,30.13-8.734,8.68-19.97,12.153-30.492,7.328ZM647.9,108.792c3.348,16.558,16.468,26.539,32.765,28.338,15.925,1.758,33.769-4.382,47.4-17.676l-9.214-6.771c-11.491,11.211-25.5,15.429-36.6,14.2-10.736-1.185-19.828-7.53-22.316-19.838Zm80.161,10.662a70.89,70.89,0,0,0,17.223-28.277,41.541,41.541,0,0,0,2.181-13.992c-.186-4.115-1.378-8.625-5.058-11.745l-8.632,7.3c.468.4,1.358,1.726,1.5,4.84a32.883,32.883,0,0,1-1.777,10.932,61.055,61.055,0,0,1-14.648,24.171ZM742.4,65.439a8.2,8.2,0,0,0-4.7-1.937,8.047,8.047,0,0,0-5.507,1.594,10.74,10.74,0,0,0-3.306,4.877,67.746,67.746,0,0,0-2.845,13.151c-1.562,10.952-2.792,26.609-4.1,43.189-1.319,16.667-2.727,34.355-4.644,49.623-1.947,15.505-4.34,27.75-7.341,33.976l11.3,3.9c3.76-7.8,6.261-21.518,8.177-36.787,1.946-15.506,3.37-33.405,4.685-50.024,1.322-16.705,2.53-32.03,4.043-42.641a60.543,60.543,0,0,1,2.351-11.237c.482-1.272.615-.935-.153-.35A5.564,5.564,0,0,1,736.6,73.79a4.969,4.969,0,0,1-2.825-1.05ZM709.955,209.913c-7.419,15.392-16.39,25.132-25.417,29.766-8.568,4.4-17.729,4.507-27.48-.468l-6.3,8.848c13.414,6.844,27.442,6.952,40.1.453,12.2-6.263,22.494-18.317,30.388-34.7Zm-52.9,29.3c-8.138-4.152-11.978-14.117-7.512-28.24,4.371-13.824,16.473-30,36.8-43.434l-7.508-8.142C656.733,174,642.913,192,637.76,208.3c-5.058,16-2.025,32.095,13,39.761Zm29.283-71.674c27.642-18.271,86.267-44.68,143.749-49.947l-1.31-10.271c-60.281,5.523-120.994,32.936-149.947,52.075Zm-57.87-61.331c-3.314-9.5-11.4-15.16-20.242-18.336-8.7-3.126-18.46-4-26.343-4V94.2c7.023,0,14.966.806,21.577,3.182,6.469,2.324,11.3,5.985,13.308,11.753Zm31.491,1.063c-1.959-13.057,6.91-27.481,29.229-33.239l-3.555-9.882c-27.566,7.111-40.542,25.995-37.777,44.422Zm29.229-33.239c14.777-3.811,25.7-3.759,33.17-2.855a68.744,68.744,0,0,1,9.025,1.722c.933.239,2.384.632,3.116.815a15.223,15.223,0,0,0,3.585.542V63.924c.6,0,.826.12-.133-.12-.909-.227-1.506-.4-3.036-.794a82.831,82.831,0,0,0-10.829-2.061c-9.205-1.114-21.936-1.061-38.452,3.2ZM534.452,165.422c9.5,0,19.929-2.021,27.843-4.177a93.834,93.834,0,0,0,10.134-3.314,28.6,28.6,0,0,0,3.522-1.661,10.309,10.309,0,0,0,1.715-1.217,5.4,5.4,0,0,0,1.907-3.921h-12.2a4.309,4.309,0,0,1,1.41-3.159c.263-.236.42-.31.273-.225a16.8,16.8,0,0,1-1.884.862,81.027,81.027,0,0,1-8.612,2.8c-7.286,1.984-16.368,3.68-24.107,3.68Zm45.727-81.348c-7.24,1.786-12.737,4.275-16.156,7.634-3.7,3.631-4.569,7.917-3.143,11.922,1.314,3.691,4.4,6.725,7.738,8.937a34.931,34.931,0,0,0,11.772,4.9l2.992-10.015a21.735,21.735,0,0,1-7.239-3.012,8.837,8.837,0,0,1-3.581-3.786c-.235-.658-.241-1.269.7-2.2,1.221-1.2,4.137-2.932,10.328-4.461Zm.211,33.388a142.969,142.969,0,0,0,54,1.059,128.221,128.221,0,0,0,16.093-3.815c1.908-.592,3.4-1.115,4.443-1.5.52-.192.927-.35,1.214-.464l.342-.138.1-.042.034-.014.013-.006.005,0s0,0-2.726-4.621-2.728-4.62-2.727-4.62h0l0,0h0l-.034.014-.2.08c-.19.076-.5.195-.911.348-.83.306-2.1.751-3.759,1.266a114.2,114.2,0,0,1-14.33,3.393,128.6,128.6,0,0,1-48.576-.95Zm74.564-4.453a252.425,252.425,0,0,0,49.7-12.764c8.759-3.34,17.231-7.374,24.137-12.164,6.876-4.769,12.579-10.552,15.118-17.456l-11.649-3.071c-1.574,4.281-5.37,8.492-11.2,12.535a102.147,102.147,0,0,1-21.417,10.736,238.627,238.627,0,0,1-46.78,12.005ZM325.346,85.544c-11.084-2.648-6.257-.34-118.371-34.211l-4.1,9.73C315.041,94.95,310.534,92.738,322.033,95.486ZM206.976,51.332C149.61,34,69.7,32.283,3.152,46.234c-33.315,6.984-63.722,17.985-86.4,33.258-22.761,15.329-37.951,35.144-39.933,59.466l12.172.711c1.691-20.748,14.572-38.093,35.357-52.092C-54.783,73.522-26.17,63.024,6.084,56.262c64.59-13.541,142.018-11.748,196.791,4.8ZM830.091,117.59c64.136-5.877,129.768,10.749,189.789,21.534,29.7,5.336,58.109,9.23,83.609,7.69,25.712-1.554,48.771-8.657,67.235-25.444l-8.931-7.04c-15.869,14.43-35.732,20.764-59.174,22.18-23.653,1.428-50.626-2.176-80.208-7.491-58.524-10.517-126.971-27.807-193.628-21.7Z" transform="translate(-255.801 9.873)"/>
  </g>
</svg>
