<svg width="1380" height="530" viewBox="0 0 1380 530" fill="none" xmlns="http://www.w3.org/2000/svg">
<path d="M270.24 244.803C130.4 325.622 70.4681 473.436 57.9824 537.24V587.752L1491.34 601.045V0.219299C1403.11 126.056 1196.18 389.427 1074.32 436.217C952.46 483.007 778.826 390.136 707.241 337.851C619.84 273.161 410.08 163.984 270.24 244.803Z" fill="url(#paint0_linear)" fill-opacity="0.2"/>
<path d="M212.804 244.803C72.9641 325.622 13.0326 473.436 0.546875 537.24V587.752L1433.91 601.045V0.219299C1345.68 126.056 1138.75 389.427 1016.89 436.217C895.025 483.007 721.39 390.136 649.805 337.851C562.405 273.161 352.644 163.984 212.804 244.803Z" fill="url(#paint1_linear)" fill-opacity="0.3"/>
<defs>
<linearGradient id="paint0_linear" x1="1396.45" y1="375.071" x2="162.854" y2="365.688" gradientUnits="userSpaceOnUse">
<stop stop-color="#41BDF2"/>
<stop offset="1" stop-color="#13FFBE"/>
</linearGradient>
<linearGradient id="paint1_linear" x1="1339.02" y1="375.071" x2="105.418" y2="365.688" gradientUnits="userSpaceOnUse">
<stop stop-color="#41BDF2"/>
<stop offset="1" stop-color="#13FFBE"/>
</linearGradient>
</defs>
</svg>
