<svg width="328" height="289" viewBox="0 0 328 289" fill="none" xmlns="http://www.w3.org/2000/svg">
<g clip-path="url(#clip0)">
<path d="M266.077 272.299H67.7266L67.816 250.084C68.0424 193.874 110.516 147.557 163.722 146.601C164.297 146.591 164.873 146.585 165.449 146.585H165.45C177.422 146.576 189.299 148.83 200.52 153.241C238.167 168.051 263.436 205.679 265.117 248.078L266.077 272.299Z" fill="url(#paint0_linear)"/>
<path d="M327.424 272.299H0.65625V273.163H327.424V272.299Z" fill="#2F2E41"/>
<path d="M163.543 172.941L172.283 179.655L181.023 258.549H201.681L194.53 168.744L165.926 156.994L163.543 172.941Z" fill="#2F2E41"/>
<path d="M126.993 147.762C126.993 147.762 124.61 176.298 134.144 177.137C143.679 177.977 180.228 168.744 180.228 168.744L197.708 234.209L223.928 219.941C223.928 219.941 208.037 146.084 198.502 141.887C188.968 137.691 157.186 129.298 157.186 129.298L134.144 133.494L126.993 147.762Z" fill="#2F2E41"/>
<path d="M184.201 256.87C184.201 256.87 179.434 276.174 182.612 277.852C184.524 278.861 186.38 279.982 188.174 281.21V277.852C188.174 277.852 192.147 282.049 192.147 285.406C192.147 288.763 213.599 289.603 213.599 285.406C213.599 281.21 212.805 276.174 208.832 273.656C204.859 271.138 200.092 256.87 200.092 256.87H184.201Z" fill="#2F2E41"/>
<path d="M207.242 222.459L208.831 238.406L214.393 248.477L227.9 232.531L217.571 214.906L207.242 222.459Z" fill="#2F2E41"/>
<path d="M219.955 238.406C219.955 238.406 222.881 227.839 225.788 228.926C228.695 230.013 239.818 240.924 239.818 240.924L247.764 245.959C247.764 245.959 263.655 247.638 258.887 252.674C254.12 257.709 236.64 264.424 228.695 261.067C220.749 257.709 219.16 256.87 219.16 256.87L216.777 258.549L207.242 256.031L208.831 238.406C208.831 238.406 211.215 245.959 219.955 238.406Z" fill="#2F2E41"/>
<path d="M154.009 42.8507C164.102 42.8507 172.283 34.2081 172.283 23.547C172.283 12.8858 164.102 4.24326 154.009 4.24326C143.916 4.24326 135.734 12.8858 135.734 23.547C135.734 34.2081 143.916 42.8507 154.009 42.8507Z" fill="#9F616A"/>
<path d="M142.487 34.8774C142.487 34.8774 144.076 52.5025 139.309 52.5025C134.541 52.5025 140.103 74.3241 152.816 74.3241C165.529 74.3241 170.296 48.3061 170.296 48.3061C170.296 48.3061 161.556 44.9489 163.145 34.0381C164.734 23.1273 142.487 34.8774 142.487 34.8774Z" fill="#9F616A"/>
<path d="M141.223 51.1581L134.544 54.1811L116.416 62.2824C115.686 62.6091 115.074 63.1765 114.674 63.9C114.273 64.6236 114.104 65.4646 114.193 66.2977L121.037 130.557C121.037 130.557 113.886 146.503 125.009 147.343L126.598 153.218L139.311 137.271L186.984 135.592L187.778 54.1811L165.966 45.0762C165.966 45.0762 162.999 62.403 141.223 51.1581Z" fill="#3F3D56"/>
<path d="M119.049 64.6723L116.113 63.7862C115.784 63.6868 115.438 63.6623 115.099 63.7144C114.76 63.7665 114.436 63.8939 114.147 64.0882C113.858 64.2825 113.612 64.5393 113.424 64.8417C113.236 65.144 113.111 65.4851 113.057 65.8422L105.266 117.47C104.658 121.293 105.24 125.222 106.924 128.666C109.331 133.481 114.331 137.848 124.611 132.655L131.762 78.101L119.049 64.6723Z" fill="#3F3D56"/>
<path d="M178.641 52.9222L188.175 54.6008L214.395 93.2082L216.779 99.9226L231.875 94.8868C231.875 94.8868 231.08 102.44 239.026 101.601C239.026 101.601 229.491 129.298 209.628 120.905C189.764 112.512 183.408 87.3332 183.408 87.3332L178.641 52.9222Z" fill="#3F3D56"/>
<path d="M189.763 69.7082L154.009 54.6006L152.42 59.6365L169.105 74.7437L189.763 69.7082Z" fill="#CCCCCC"/>
<path d="M143.006 24.7776C143.681 24.5872 143.78 23.6406 143.803 22.9031C143.924 18.9535 146.175 14.9008 149.754 13.751C151.128 13.3532 152.566 13.2696 153.972 13.5058C155.98 13.7883 157.918 14.4714 159.684 15.5188C160.616 16.0724 161.53 16.7391 162.588 16.9082C163.286 17.0199 166.31 17.9485 167.005 18.0792C168.534 18.3665 169.955 19.8113 171.422 19.2737C172.825 18.7593 173.136 16.8398 173.17 15.271C173.247 11.6969 170.678 6.75023 168.416 4.09139C166.699 2.0737 164.114 1.1423 161.587 0.657997C158.635 0.156963 155.644 -0.0352724 152.656 0.0840835C148.612 0.160272 144.456 0.489998 140.809 2.3384C137.162 4.1868 134.099 7.86557 133.924 12.1342C133.888 13.0233 133.975 13.9162 133.904 14.8031C133.731 16.9666 132.644 18.9208 132.133 21.024C131.769 22.5673 131.714 24.1741 131.973 25.7409C132.233 27.3078 132.8 28.7999 133.638 30.121C134.992 32.2248 140.404 34.1348 140.326 36.6771C141.304 35.6066 138.997 34.529 139.975 33.4585C140.413 33.1049 140.724 32.6033 140.854 32.0373C140.985 31.4713 140.927 30.8752 140.692 30.3484L139.653 26.0687C139.463 25.285 139.276 24.4368 139.563 23.6869C140.677 20.7803 141.88 25.095 143.006 24.7776Z" fill="#2F2E41"/>
<path d="M152.419 59.6365L137.322 121.744L196.118 143.566L230.284 113.351L251.736 45.3687L216.776 72.2259L152.419 59.6365Z" fill="#F2F2F2"/>
<path d="M155.302 66.3648L155.1 67.1762L212.307 83.1228L212.509 82.3114L155.302 66.3648Z" fill="#E6E6E6"/>
<path d="M153.712 70.5613L153.51 71.3727L210.717 87.3192L210.92 86.5078L153.712 70.5613Z" fill="#E6E6E6"/>
<path d="M152.919 74.7578L152.717 75.5692L209.924 91.5157L210.127 90.7043L152.919 74.7578Z" fill="#E6E6E6"/>
<path d="M152.125 78.9542L151.922 79.7656L209.129 95.7122L209.332 94.9008L152.125 78.9542Z" fill="#E6E6E6"/>
<path d="M151.33 83.1507L151.127 83.962L208.334 99.9086L208.537 99.0972L151.33 83.1507Z" fill="#E6E6E6"/>
<path d="M150.535 87.3471L150.332 88.1585L207.539 104.105L207.742 103.294L150.535 87.3471Z" fill="#E6E6E6"/>
<path d="M149.74 91.5436L149.537 92.355L206.744 108.301L206.947 107.49L149.74 91.5436Z" fill="#E6E6E6"/>
<path d="M148.945 95.7401L148.742 96.5514L205.949 112.498L206.152 111.687L148.945 95.7401Z" fill="#E6E6E6"/>
<path d="M148.152 99.9365L147.949 100.748L205.156 116.694L205.359 115.883L148.152 99.9365Z" fill="#E6E6E6"/>
<path d="M128.193 105.322C128.193 105.322 146.063 94.0475 154.009 101.601C161.954 109.155 130.967 120.066 130.967 120.066L128.193 105.322Z" fill="#9F616A"/>
<path d="M108.72 110.833L131.762 101.601C131.762 101.601 127.789 117.548 135.735 118.387L124.611 132.655C124.611 132.655 102.364 132.655 108.72 110.833Z" fill="#3F3D56"/>
<path d="M169.353 110.489L199.928 121.374L192.692 138.035L162.117 127.15L169.353 110.489Z" fill="#E6E6E6"/>
<path d="M223.532 75.1636L246.574 56.6989L240.217 79.3601L216.381 97.8243L223.532 75.1636Z" fill="#CCCCCC"/>
<path d="M235.21 87.4187L212.168 105.883L212.648 106.551L235.69 88.0875L235.21 87.4187Z" fill="#E6E6E6"/>
<path d="M233.62 96.6509L210.578 115.115L211.058 115.784L234.101 97.3197L233.62 96.6509Z" fill="#E6E6E6"/>
<path d="M236.642 102.44C236.642 102.44 256.506 89.851 243.793 84.8153C231.081 79.7795 231.081 99.0833 231.081 99.0833C231.081 99.0833 230.286 103.28 236.642 102.44Z" fill="#9F616A"/>
<path opacity="0.1" d="M120.24 74.3242L119.445 107.057L131.761 103.344L121.829 103.699L120.24 74.3242Z" fill="black"/>
<path d="M33.5411 257.496C36.0248 267.194 44.5322 273.201 44.5322 273.201C44.5322 273.201 49.0126 263.483 46.5289 253.784C44.0452 244.086 35.5378 238.079 35.5378 238.079C35.5378 238.079 31.0573 247.797 33.5411 257.496Z" fill="#8985A8"/>
<path d="M37.1912 255.411C44.0066 262.42 44.8391 273.193 44.8391 273.193C44.8391 273.193 34.6215 272.604 27.8061 265.595C20.9907 258.587 20.1582 247.814 20.1582 247.814C20.1582 247.814 30.3758 248.403 37.1912 255.411Z" fill="#3F3D56"/>
<path d="M268.941 163.866H256.672V176.826H268.941V163.866Z" fill="#F2F2F2"/>
<path d="M219.865 16.9842H207.596V29.9443H219.865V16.9842Z" fill="#F2F2F2"/>
<path d="M65.6814 148.313C69.0694 148.313 71.816 145.412 71.816 141.833C71.816 138.255 69.0694 135.353 65.6814 135.353C62.2934 135.353 59.5469 138.255 59.5469 141.833C59.5469 145.412 62.2934 148.313 65.6814 148.313Z" fill="#F2F2F2"/>
</g>
<defs>
<linearGradient id="paint0_linear" x1="166.902" y1="146.585" x2="166.902" y2="272.299" gradientUnits="userSpaceOnUse">
<stop stop-color="#97FEE3"/>
<stop offset="1" stop-color="#ABE2F9"/>
</linearGradient>
<clipPath id="clip0">
<rect width="326.768" height="288.179" fill="white" transform="translate(0.65625 0.0678711)"/>
</clipPath>
</defs>
</svg>
